<svg width="50" height="50" viewBox="0 0 50 50" fill="none" xmlns="http://www.w3.org/2000/svg">
    <path d="M25 5.02252C18.095 5.02252 12.5 10.595 12.5 17.4975C12.5 29.4325 25 44.9975 25 44.9975C25 44.9975 37.5 29.43 37.5 17.4975C37.5 10.5975 31.905 5.02252 25 5.02252ZM25 24.4C23.2098 24.4 21.4929 23.6889 20.227 22.423C18.9612 21.1571 18.25 19.4402 18.25 17.65C18.25 15.8598 18.9612 14.1429 20.227 12.8771C21.4929 11.6112 23.2098 10.9 25 10.9C26.7902 10.9 28.5071 11.6112 29.773 12.8771C31.0388 14.1429 31.75 15.8598 31.75 17.65C31.75 19.4402 31.0388 21.1571 29.773 22.423C28.5071 23.6889 26.7902 24.4 25 24.4Z" fill="#FF0053"/>
</svg>
