<svg width="22" height="22" viewBox="0 0 22 22" fill="none" xmlns="http://www.w3.org/2000/svg">
    <g clip-path="url(#clip0_185_583)">
        <path fill-rule="evenodd" clip-rule="evenodd" d="M0 11C0 8.08262 1.15893 5.28473 3.22183 3.22183C5.28473 1.15893 8.08262 0 11 0C13.9174 0 16.7153 1.15893 18.7782 3.22183C20.8411 5.28473 22 8.08262 22 11C22 13.9174 20.8411 16.7153 18.7782 18.7782C16.7153 20.8411 13.9174 22 11 22C8.08262 22 5.28473 20.8411 3.22183 18.7782C1.15893 16.7153 0 13.9174 0 11H0ZM10.3723 15.708L16.7053 7.79093L15.5613 6.87573L10.1611 13.6239L6.336 10.4368L5.39733 11.5632L10.3723 15.7095V15.708Z" fill="black"/>
    </g>
    <defs>
        <clipPath id="clip0_185_583">
            <rect width="22" height="22" fill="white"/>
        </clipPath>
    </defs>
</svg>
